<svg width="64" height="64" viewBox="0 0 64 64" fill="none" xmlns="http://www.w3.org/2000/svg">
<rect width="64" height="64" rx="8" fill="white"/>
<path d="M17.608 42L13.432 24.48H18.04L21.184 39L20.44 38.448H22.384L21.544 39L23.92 25.104H27.544L24.256 42H17.608ZM28.024 42L24.496 25.104H28.312L31.096 39L30.256 38.448H32.08L31.456 39L34.168 24.48H38.488L34.816 42H28.024ZM37.0979 42V24.48H41.4179V42H37.0979ZM40.9379 42V38.352H48.3299V42H40.9379ZM40.9379 34.92V31.272H47.8259V34.92H40.9379ZM40.9379 28.128V24.48H48.1859V28.128H40.9379Z" fill="black"/>
</svg>
